<svg xmlns="http://www.w3.org/2000/svg" width="448" height="512" viewBox="0 0 448 512"><path fill="#69c0ff" d="M64 160h64V96H64zM0 80c0-26.5 21.5-48 48-48h96c26.5 0 48 21.5 48 48v96c0 26.5-21.5 48-48 48H48c-26.5 0-48-21.5-48-48zm64 336h64v-64H64zM0 336c0-26.5 21.5-48 48-48h96c26.5 0 48 21.5 48 48v96c0 26.5-21.5 48-48 48H48c-26.5 0-48-21.5-48-48zM320 96v64h64V96zm-16-64h96c26.5 0 48 21.5 48 48v96c0 26.5-21.5 48-48 48h-96c-26.5 0-48-21.5-48-48V80c0-26.5 21.5-48 48-48m-16 320a32 32 0 1 1 0-64a32 32 0 1 1 0 64m0 64c17.7 0 32 14.3 32 32s-14.3 32-32 32s-32-14.3-32-32s14.3-32 32-32m96 32c0-17.7 14.3-32 32-32s32 14.3 32 32s-14.3 32-32 32s-32-14.3-32-32m32-96a32 32 0 1 1 0-64a32 32 0 1 1 0 64m-32 32a32 32 0 1 1-64 0a32 32 0 1 1 64 0"/></svg>